<svg viewBox="0 0 125 121" fill="none" xmlns="http://www.w3.org/2000/svg">
<path d="M117.79 12.03L62.41 108.11L7.02 12.03L0 24.08L55.37 120.14H55.47H69.34H69.45L124.9 23.94L117.79 12.03Z" fill="url(#paint0_linear_2041_3355)"/>
<path d="M34.7701 12.03H104.13L111.02 0H13.8501L62.4501 84.2H62.5501L97.2101 24.07H55.4701L62.4101 36.11H76.3001L62.5001 60.05L34.7701 12.03Z" fill="url(#paint1_linear_2041_3355)"/>
<path opacity="0.36" d="M114.32 33.45L64.3501 120.14H69.0701H69.1801L116.77 37.57L114.32 33.45Z" fill="url(#paint2_linear_2041_3355)"/>
<path d="M72.2402 43.13L65.3002 55.18H71.6602L58.6802 77.69L62.4402 84.2H62.5402L86.2102 43.13H72.2402Z" fill="url(#paint3_linear_2041_3355)"/>
<defs>
<linearGradient id="paint0_linear_2041_3355" x1="62.45" y1="157.23" x2="62.45" y2="29.54" gradientUnits="userSpaceOnUse">
<stop offset="0.33" stop-color="#17573C"/>
<stop offset="1" stop-color="#4AC486"/>
</linearGradient>
<linearGradient id="paint1_linear_2041_3355" x1="62.4401" y1="-3.72" x2="62.4401" y2="138.79" gradientUnits="userSpaceOnUse">
<stop stop-color="#4AC486"/>
<stop offset="0.58" stop-color="#16533D"/>
</linearGradient>
<linearGradient id="paint2_linear_2041_3355" x1="90.5601" y1="106.81" x2="90.5601" y2="4.42001" gradientUnits="userSpaceOnUse">
<stop stop-color="white" stop-opacity="0.5"/>
<stop offset="0.66" stop-color="white"/>
<stop offset="1" stop-color="white" stop-opacity="0.1"/>
</linearGradient>
<linearGradient id="paint3_linear_2041_3355" x1="72.4502" y1="8.82001" x2="72.4502" y2="78.32" gradientUnits="userSpaceOnUse">
<stop offset="0.1" stop-color="#FFFFF2" stop-opacity="0.5"/>
<stop offset="1" stop-color="#D8DDD0" stop-opacity="0"/>
</linearGradient>
</defs>
</svg>
