<svg xmlns="http://www.w3.org/2000/svg" viewBox="0 0 362.01 120"><defs><style>.cls-1{fill:#f05231;}.cls-2{fill:#172852;}</style></defs><g id="Layer_2" data-name="Layer 2"><g id="Layer_1-2" data-name="Layer 1"><path class="cls-1" d="M56.84,53.21c.58-2.2-.62-2.85-2-2.7-4,.45-8.32,2.67-11.31,4.55C48,53.63,55.43,51.58,56.84,53.21Z"/><path class="cls-1" d="M56.05,55.16c-.64-.8-3.67-1.43-16.41,2.65l-1.7-4.63s-.09-6.69,27.43-28.42C68.83,22,72,19.39,74.79,16.85q2-1.77,3.76-3.47a17.42,17.42,0,0,0-6.67-7.7A16.38,16.38,0,0,0,63.72,3c-1.32-.08-2.64-.18-4-.27L54,2.36l-4.34-.28-5.84-.39-4.26-.28L33.74,1,29.44.75C27.52.62,25.61.48,23.69.36c-1.45-.1-2.9-.17-4.34-.28a18.88,18.88,0,0,0-7,.63C4.69,3,0,9.22,0,17.05v43q0,21.61,0,43.22a18,18,0,0,0,.35,3.51,15.79,15.79,0,0,0,6.18,9.69c1.22-1.33,2.49-2.73,3.78-4.18C26.08,94.48,45.94,68,51.85,61.05A34.59,34.59,0,0,0,56.05,55.16Zm-22.91-25a.52.52,0,0,0-.68,0c-1.63,1.06-3.27,2.1-4.91,3.15l-.08,0,1.29-4c.14-.46.27-.93.45-1.38a.53.53,0,0,0-.23-.73c-1.52-1.14-3-2.31-4.54-3.46l-.29-.24c.61,0,1.15,0,1.69,0l4.48.11c.29,0,.4-.13.48-.37l1.84-5,.16-.41c.07.16.13.27.17.38.62,1.72,1.24,3.44,1.84,5.18a.57.57,0,0,0,.61.43c1.94.1,3.87.22,5.93.34l-.52.39q-2.09,1.45-4.18,2.9a.56.56,0,0,0-.26.75c.58,1.81,1.13,3.63,1.73,5.56l-.45-.3Z"/><path class="cls-1" d="M79.82,17.78c-.09-.54-.2-1.06-.33-1.57L75.22,20C55.12,38,44,50,44,50S76.1,35.86,57.18,61.1C35.07,90.59,23.94,105.17,16,114.62c-1.41,1.69-2.73,3.21-4,4.62a15.68,15.68,0,0,0,2,.45,21.63,21.63,0,0,0,3.77.31c1.46,0,2.93-.19,4.39-.29l5-.35,5.54-.4,5-.35,5.4-.4,5.16-.35,5.58-.4,3.83-.27c1.83-.13,3.66-.28,5.49-.39a18.74,18.74,0,0,0,4.08-.63A17.65,17.65,0,0,0,80,99.62q0-39.77,0-79.52A14.91,14.91,0,0,0,79.82,17.78Z"/><polygon class="cls-2" points="123.16 18 115.25 38.76 107.47 18 100.02 18 111.59 48 118.41 48 130.02 18 123.16 18"/><polygon class="cls-2" points="135.54 18 135.52 18 133.03 18 135.52 21.25 135.52 48 142.46 48 142.46 18 135.54 18"/><polygon class="cls-2" points="172.1 18 175.37 23.65 181.64 23.65 181.64 48 188.59 48 188.59 23.65 194.86 23.65 198.12 18 172.1 18"/><polygon class="cls-2" points="155.39 42.43 155.39 35.48 161.89 35.48 165.01 30.08 155.39 30.08 155.39 23.57 165.86 23.57 169.08 18 148.53 18 148.49 18 146.1 18 148.49 21.13 148.49 48 166.35 48 169.57 42.43 155.39 42.43"/><path class="cls-2" d="M157,82.05h0a5.63,5.63,0,0,1-5.63-5.63V66.58a2.27,2.27,0,0,1,2.27-2.28h6.71a2.28,2.28,0,0,1,1.92,1.06l5.17-3a7.82,7.82,0,0,0-6.87-4.09h-7.14a7.82,7.82,0,0,0-7.82,7.82V76.84A11.39,11.39,0,0,0,157,88.23h0a11.36,11.36,0,0,0,9.2-4.68l-5.28-3.1A5.59,5.59,0,0,1,157,82.05Z"/><path class="cls-2" d="M168.39,69a5.06,5.06,0,0,0-2.87-.89,5.11,5.11,0,0,0,0,10.22,5.05,5.05,0,0,0,2.85-.87,5.1,5.1,0,0,0,0-8.46Z"/><path class="cls-2" d="M279.17,75.63a7.53,7.53,0,0,0-3.41-2.72c-.26-.11-.54-.21-.82-.3a7.39,7.39,0,0,0,2.79-2.49A7.2,7.2,0,0,0,278.89,66,6.75,6.75,0,0,0,276,60.37c-1.9-1.42-4.74-2.14-8.51-2.14H255v30h13.42q5.91,0,9-2.16a7,7,0,0,0,3-6A7.71,7.71,0,0,0,279.17,75.63Zm-12.5-12.17a7.08,7.08,0,0,1,3.88.88A2.92,2.92,0,0,1,271.9,67a3,3,0,0,1-1.35,2.68,7.08,7.08,0,0,1-3.88.88h-4.8V63.46ZM272,82.12a7.73,7.73,0,0,1-4.1.88h-6V75.59h6a7.52,7.52,0,0,1,4.1.92,3.13,3.13,0,0,1,1.39,2.81A3.05,3.05,0,0,1,272,82.12Z"/><path class="cls-2" d="M306.61,88.23h7.05l-11.7-30h-6.63l-11.67,30h6.88l2.28-6.43h11.53Zm-11.92-11.7,3.91-11,3.89,11Z"/><polygon class="cls-2" points="132.67 58.23 132.66 58.23 130.16 58.23 132.66 61.49 132.66 88.23 139.6 88.23 139.6 58.23 132.67 58.23"/><polygon class="cls-2" points="186.26 73.2 198.1 58.23 190 58.23 181.76 68.32 181.76 58.23 174.91 58.23 174.86 58.23 172.4 58.23 174.86 61.46 174.86 88.23 181.76 88.23 181.76 78.01 191.47 88.23 200.12 88.23 186.26 73.2"/><path class="cls-2" d="M125.07,63.29a10.18,10.18,0,0,0-4.5-3.75,16.88,16.88,0,0,0-6.94-1.31H100l2.46,3.21V88.23h6.94V80h4.21a16.88,16.88,0,0,0,6.94-1.31,10.18,10.18,0,0,0,4.5-3.75,11.39,11.39,0,0,0,0-11.61Zm-7,9.64a7.16,7.16,0,0,1-4.8,1.37h-3.82V63.89h3.82a7.22,7.22,0,0,1,4.8,1.37,4.82,4.82,0,0,1,1.59,3.86A4.75,4.75,0,0,1,118,72.93Z"/><polygon class="cls-2" points="234.82 82.66 234.82 75.72 241.32 75.72 244.43 70.32 234.82 70.32 234.82 63.8 245.29 63.8 248.51 58.23 227.95 58.23 227.92 58.23 225.52 58.23 227.92 61.36 227.92 88.23 245.78 88.23 249 82.66 234.82 82.66"/><polygon class="cls-2" points="210.65 82.57 210.65 58.23 203.75 58.23 203.71 58.23 201.24 58.23 203.71 61.46 203.71 88.23 221.08 88.23 224.84 82.57 210.65 82.57"/><polygon class="cls-2" points="323.69 82.57 323.69 58.23 316.79 58.23 316.75 58.23 314.27 58.23 316.75 61.46 316.75 88.23 334.12 88.23 337.88 82.57 323.69 82.57"/><polygon class="cls-2" points="347.82 82.57 347.82 58.23 340.92 58.23 340.88 58.23 338.4 58.23 340.88 61.46 340.88 88.23 358.25 88.23 362.01 82.57 347.82 82.57"/><path class="cls-2" d="M104.68,108.58,100,98h1.63l4.27,9.74H105L109.3,98h1.51l-4.63,10.56Z"/><path class="cls-2" d="M112.15,108.58V98h1.51v10.56Z"/><path class="cls-2" d="M118.34,107.27h6.15v1.31h-7.66V98h7.45v1.31h-5.94Zm-.14-4.7h5.43v1.29H118.2Z"/><path class="cls-2" d="M129,108.58V99.33h-3.62V98h8.73v1.31h-3.62v9.25Z"/><path class="cls-2" d="M135.8,108.58V98H137l7,8.67h-.65V98h1.51v10.56h-1.24l-7-8.68h.65v8.68Z"/><path class="cls-2" d="M146.45,108.58,151.23,98h1.5l4.79,10.56h-1.58l-4.27-9.72h.6L148,108.58Zm2-2.64.4-1.21h6l.44,1.21Z"/><path class="cls-2" d="M159.09,108.58V98h1.24l4.74,8h-.66l4.67-8h1.24l0,10.56h-1.45l0-8.29h.35l-4.17,7h-.69l-4.19-7h.37v8.29Z"/><path class="cls-2" d="M173,102.09,172.87,98h1.27l-.11,4.07Z"/><path class="cls-2" d="M179.75,108.7a7.16,7.16,0,0,1-2.31-.37,4.81,4.81,0,0,1-1.73-1l.56-1.18a4.7,4.7,0,0,0,1.53.88,5.65,5.65,0,0,0,1.95.35,4.41,4.41,0,0,0,1.49-.21,1.79,1.79,0,0,0,.85-.59,1.35,1.35,0,0,0,.27-.83,1.16,1.16,0,0,0-.35-.88,2.65,2.65,0,0,0-.92-.53,9.76,9.76,0,0,0-1.25-.36c-.45-.1-.91-.22-1.36-.35a6.52,6.52,0,0,1-1.26-.52,2.59,2.59,0,0,1-.91-.86,2.47,2.47,0,0,1-.35-1.38,2.84,2.84,0,0,1,.43-1.5,3,3,0,0,1,1.33-1.1,5.42,5.42,0,0,1,2.29-.42,7.07,7.07,0,0,1,1.82.25,5,5,0,0,1,1.57.69l-.5,1.21a5,5,0,0,0-1.43-.66,5.82,5.82,0,0,0-1.46-.2,4.1,4.1,0,0,0-1.47.22,1.82,1.82,0,0,0-.83.61,1.4,1.4,0,0,0-.27.84,1.15,1.15,0,0,0,.36.89,2.48,2.48,0,0,0,.92.53c.37.13.79.25,1.24.36s.91.22,1.37.35a5.84,5.84,0,0,1,1.25.51,2.56,2.56,0,0,1,.91.85,2.43,2.43,0,0,1,.35,1.36,2.72,2.72,0,0,1-.44,1.48,3,3,0,0,1-1.35,1.1A5.5,5.5,0,0,1,179.75,108.7Z"/><path class="cls-2" d="M190.1,108.58V98h4.12a5.8,5.8,0,0,1,2.37.43,3.45,3.45,0,0,1,1.51,1.27,3.94,3.94,0,0,1,0,4,3.36,3.36,0,0,1-1.51,1.26,5.63,5.63,0,0,1-2.37.45h-3.29l.68-.71v3.91Zm1.51-3.76-.68-.75h3.25a3.38,3.38,0,0,0,2.19-.62,2.42,2.42,0,0,0,0-3.5,3.33,3.33,0,0,0-2.19-.62h-3.25l.68-.76Z"/><path class="cls-2" d="M200.84,108.58V98H205a5.8,5.8,0,0,1,2.37.43,3.39,3.39,0,0,1,1.51,1.27,3.94,3.94,0,0,1,0,4,3.31,3.31,0,0,1-1.51,1.26,5.8,5.8,0,0,1-2.37.43h-3.29l.68-.69v3.91Zm1.51-3.76-.68-.74h3.25a3.36,3.36,0,0,0,2.19-.62,2.18,2.18,0,0,0,.75-1.76,2.13,2.13,0,0,0-.75-1.75,3.31,3.31,0,0,0-2.19-.62h-3.25l.68-.76Zm5.56,3.76-2.69-3.83h1.62l2.71,3.83Z"/><path class="cls-2" d="M213.32,107.27h6.16v1.31h-7.67V98h7.46v1.31h-6Zm-.13-4.7h5.43v1.29h-5.43Z"/><path class="cls-2" d="M221.92,108.58V98h1.24l4.74,8h-.66l4.67-8h1.24l0,10.56h-1.45l0-8.29h.35l-4.16,7h-.7l-4.19-7h.37v8.29Z"/><path class="cls-2" d="M236.33,108.58V98h1.51v10.56Z"/><path class="cls-2" d="M242.52,107.27h6.16v1.31H241V98h7.46v1.31h-5.95Zm-.13-4.7h5.43v1.29h-5.43Z"/><path class="cls-2" d="M251.12,108.58V98h4.12a5.8,5.8,0,0,1,2.37.43,3.45,3.45,0,0,1,1.51,1.27,3.94,3.94,0,0,1,0,4,3.36,3.36,0,0,1-1.51,1.26,5.8,5.8,0,0,1-2.37.43H252l.68-.69v3.91Zm1.51-3.76-.68-.74h3.25a3.38,3.38,0,0,0,2.19-.62,2.18,2.18,0,0,0,.75-1.76,2.13,2.13,0,0,0-.75-1.75,3.33,3.33,0,0,0-2.19-.62H252l.68-.76Zm5.55,3.76-2.68-3.83h1.61l2.72,3.83Z"/><path class="cls-2" d="M266.15,108.58V98h4.12a5.84,5.84,0,0,1,2.37.43,3.5,3.5,0,0,1,1.51,1.27,3.94,3.94,0,0,1,0,4,3.42,3.42,0,0,1-1.51,1.26,5.66,5.66,0,0,1-2.37.45H267l.68-.71v3.91Zm1.51-3.76-.68-.75h3.24a3.39,3.39,0,0,0,2.2-.62,2.42,2.42,0,0,0,0-3.5,3.34,3.34,0,0,0-2.2-.62H267l.68-.76Z"/><path class="cls-2" d="M276.89,108.58V98h1.51v10.56Z"/><path class="cls-2" d="M286.29,108.7a6,6,0,0,1-2.22-.4,5.26,5.26,0,0,1-1.77-1.13,5.58,5.58,0,0,1-1.17-1.72,5.37,5.37,0,0,1,2.95-7.16,6.22,6.22,0,0,1,2.23-.4,5.94,5.94,0,0,1,2.26.42,4.64,4.64,0,0,1,1.75,1.23l-1,.95a3.84,3.84,0,0,0-1.35-.94,4.21,4.21,0,0,0-1.62-.31,4.48,4.48,0,0,0-1.65.3,3.92,3.92,0,0,0-1.32.84,4.08,4.08,0,0,0-.87,1.29,4.41,4.41,0,0,0,0,3.25,3.86,3.86,0,0,0,.87,1.29,3.92,3.92,0,0,0,1.32.84,4.29,4.29,0,0,0,1.65.31,4.4,4.4,0,0,0,1.62-.31,3.9,3.9,0,0,0,1.35-1l1,1a4.77,4.77,0,0,1-1.75,1.24A6,6,0,0,1,286.29,108.7Z"/><path class="cls-2" d="M292.48,108.58V98H294v10.56Zm1.33-2.55-.08-1.84,6-6.17h1.72l-4.63,4.88-.84.94Zm6.16,2.55-4.34-5,1-1.12,5.08,6.16Z"/><path class="cls-2" d="M303.33,108.58V98h1.51v9.25h5.72v1.31Z"/><path class="cls-2" d="M313.8,107.27H320v1.31h-7.67V98h7.46v1.31H313.8Zm-.13-4.7h5.43v1.29h-5.43Z"/><path class="cls-2" d="M322.4,108.58V98h4.74a4.63,4.63,0,0,1,2.81.73,2.37,2.37,0,0,1,1,2,2.6,2.6,0,0,1-.39,1.45,2.5,2.5,0,0,1-1,.9,3.16,3.16,0,0,1-1.4.32l.27-.45a3.84,3.84,0,0,1,1.6.31,2.56,2.56,0,0,1,1.1.93,2.69,2.69,0,0,1,.41,1.52,2.46,2.46,0,0,1-1,2.1,5.09,5.09,0,0,1-3,.75Zm1.51-1.22h3.47a3.5,3.5,0,0,0,1.92-.43,1.45,1.45,0,0,0,.66-1.32,1.48,1.48,0,0,0-.66-1.35,3.6,3.6,0,0,0-1.92-.42h-3.6v-1.22H327a3.23,3.23,0,0,0,1.78-.42,1.44,1.44,0,0,0,.63-1.27,1.42,1.42,0,0,0-.63-1.27,3.23,3.23,0,0,0-1.78-.42h-3.1Z"/><path class="cls-2" d="M332.23,108.58,337,98h1.49l4.8,10.56h-1.58l-4.27-9.72h.6l-4.27,9.72Zm2-2.64.41-1.21h5.95l.43,1.21Z"/><path class="cls-2" d="M344.87,108.58V98h1.51v9.25h5.72v1.31Z"/><path class="cls-2" d="M353.83,108.58V98h1.51v9.25h5.72v1.31Z"/></g></g></svg>